<?xml version="1.0" encoding="UTF-8" standalone="no"?>
<!-- Created with Inkscape (http://www.inkscape.org/) -->

<svg
   width="210mm"
   height="210mm"
   viewBox="0 0 210 210"
   version="1.1"
   id="svg5"
   inkscape:version="1.1 (c68e22c387, 2021-05-23)"
   sodipodi:docname="clue1.svg"
   xmlns:inkscape="http://www.inkscape.org/namespaces/inkscape"
   xmlns:sodipodi="http://sodipodi.sourceforge.net/DTD/sodipodi-0.dtd"
   xmlns="http://www.w3.org/2000/svg"
   xmlns:svg="http://www.w3.org/2000/svg">
  <sodipodi:namedview
     id="namedview7"
     pagecolor="#ffffff"
     bordercolor="#666666"
     borderopacity="1.0"
     inkscape:pageshadow="2"
     inkscape:pageopacity="0.0"
     inkscape:pagecheckerboard="0"
     inkscape:document-units="mm"
     showgrid="false"
     inkscape:zoom="0.74118967"
     inkscape:cx="397.33419"
     inkscape:cy="346.06527"
     inkscape:window-width="1920"
     inkscape:window-height="1017"
     inkscape:window-x="-8"
     inkscape:window-y="-8"
     inkscape:window-maximized="1"
     inkscape:current-layer="layer1" />
  <defs
     id="defs2" />
  <g
     inkscape:label="Layer 1"
     inkscape:groupmode="layer"
     id="layer1">
    <circle
       id="path184"
       style="fill:#000000;stroke:#000000;stroke-width:0.264583"
       cx="302.65021"
       cy="-37.068153"
       r="0.047548212"
       transform="rotate(40)" />
    <circle
       id="path186"
       style="fill:#000000;stroke:#000000;stroke-width:0.264583"
       cx="302.65021"
       cy="-37.068153"
       r="0.047548212"
       transform="rotate(40)" />
    <path
       sodipodi:type="star"
       style="fill:#ffcc00"
       id="path418"
       inkscape:flatsided="false"
       sodipodi:sides="3"
       sodipodi:cx="134.91823"
       sodipodi:cy="468.16626"
       sodipodi:r1="278.40271"
       sodipodi:r2="139.20135"
       sodipodi:arg1="0.52359878"
       sodipodi:arg2="1.5707963"
       inkscape:rounded="0"
       inkscape:randomized="0"
       d="m 376.02205,607.36762 -241.10382,-10e-6 -241.10382,0 L 14.366317,398.56559 134.91823,189.76355 255.47014,398.56558 Z"
       transform="matrix(0.04594442,-0.26056371,0.26056371,0.04594442,-26.579611,95.537679)"
       inkscape:transform-center-y="6.3955239"
       inkscape:transform-center-x="12.596729" />
    <path
       style="fill:#000000;stroke-width:0.264583"
       id="path748"
       d="m 51.066313,81.791769 c 0.97186,-0.419069 1.787836,-1.07606 2.546389,-1.799712 0.456458,-0.392754 0.223931,-0.181111 0.694185,-0.638704 0,0 -1.502259,-3.637303 -1.502259,-3.637303 v 0 c -0.453307,0.447316 -0.221999,0.235947 -0.692454,0.635711 -0.715867,0.700677 -1.468399,1.373036 -2.424213,1.727575 0,0 1.378352,3.712433 1.378352,3.712433 z" />
    <path
       style="fill:#000000;stroke-width:0.264583"
       id="path750"
       d="m 54.660428,69.655184 c 1.465227,0.35148 2.838302,0.973748 4.229624,1.534197 1.600734,0.697203 3.254863,1.257295 4.933631,1.732022 0.733268,0.310206 1.992083,0.134308 2.45962,0.921866 0.104694,0.176539 0.135684,0.387407 0.203054,0.581277 -0.383807,-0.947491 -0.654943,-1.948846 -1.151341,-2.842513 -0.151202,-0.272159 0.07404,0.618796 0.08892,0.929769 0.01555,0.324297 0.01087,0.64949 0.0022,0.974054 -0.02644,0.988433 -0.184054,1.904027 -0.397288,2.866502 -0.566794,2.040662 -1.563364,3.915846 -2.429007,5.837142 -0.479873,1.092002 -0.864778,2.220525 -1.18367,3.36876 0,0 1.694065,3.546985 1.694065,3.546985 v 0 c 0.2859,-1.156691 0.638336,-2.295946 1.102456,-3.395006 0.847469,-1.94965 1.866414,-3.831307 2.490772,-5.871584 0.331199,-1.293856 0.508144,-2.543242 0.503816,-3.882658 -9.51e-4,-0.313619 0.05166,-0.63844 -0.0334,-0.940283 -0.422201,-1.497712 -0.986522,-2.951657 -1.479807,-4.427465 -0.123265,-0.186339 -0.215291,-0.397658 -0.369871,-0.558988 -0.648044,-0.67643 -1.796451,-0.54243 -2.607725,-0.858138 -1.666967,-0.456483 -3.303562,-1.01521 -4.88281,-1.721478 -1.406762,-0.587404 -2.816637,-1.168567 -4.286436,-1.584181 0,0 1.112952,3.789812 1.112952,3.789812 z" />
    <path
       style="fill:#000000;stroke-width:0.264583"
       id="path752"
       d="m 60.312604,61.904173 c 1.626061,0.300326 3.270379,0.456026 4.911686,0.646408 2.632916,0.33446 5.267689,0.677002 7.838543,1.348026 1.103001,0.305835 2.205654,0.628197 3.282073,1.01953 0.363895,0.132299 1.222555,0.460631 1.572998,0.704414 0.175898,0.122274 0.307851,0.298011 0.461788,0.447018 0.06767,0.242351 0.334212,0.94163 0.202912,0.727078 -0.458472,-0.746077 -0.432418,-1.907873 -1.194035,-2.340027 -0.47152,-0.267599 -0.02664,1.084408 -0.06583,1.625156 -0.126551,1.746042 -0.411502,3.477352 -0.680683,5.205241 -0.566146,3.746378 -1.395257,7.444143 -2.184623,11.147694 -0.478552,2.135426 -0.950026,4.267755 -1.191024,6.44425 -0.08642,0.530437 -0.07913,1.059086 -0.04798,1.592372 0,0 1.81971,3.488675 1.81971,3.488675 v 0 c -0.07093,-0.527492 -0.122634,-1.047914 -0.03075,-1.579082 0.19428,-2.214158 0.609991,-4.388062 1.088669,-6.558226 0.771361,-3.707671 1.617466,-7.401874 2.208212,-11.144286 0.272223,-1.731604 0.548567,-3.46408 0.719464,-5.209502 0.05222,-0.533982 0.22072,-1.077279 0.123087,-1.604864 -0.731381,-3.953586 -0.610437,-3.603722 -1.713266,-5.592436 -0.184126,-0.135699 -0.353989,-0.293116 -0.552297,-0.407169 -1.421869,-0.820185 -3.369116,-1.121435 -4.913822,-1.643126 -2.596357,-0.62905 -5.2423,-0.983979 -7.887293,-1.345362 -1.647572,-0.216483 -3.301864,-0.3957 -4.925668,-0.759879 0,0 1.158146,3.788144 1.158146,3.788144 z" />
    <path
       style="fill:#000000;stroke-width:0.264583"
       id="path982"
       d="m 138.16802,35.178221 c 0.31051,1.289397 0.37707,2.601632 0.40781,3.920454 0.025,0.782253 -0.12292,1.545515 -0.56878,2.194422 0,0 3.86242,0.832831 3.86242,0.832831 v 0 c 0.41925,-0.746971 0.62488,-1.564845 0.57559,-2.426743 -0.0518,-1.331454 -0.0999,-2.659073 -0.35863,-3.971622 0,0 -3.91841,-0.549342 -3.91841,-0.549342 z" />
    <path
       style="fill:#000000;stroke-width:0.264583"
       id="path984"
       d="m 130.05478,39.451705 c 0.93254,0.978789 1.92467,1.898914 2.91996,2.813083 0.72374,0.671217 1.50306,1.276836 2.17442,2.002064 0.51202,0.596874 1.05732,1.161704 1.63507,1.694741 0.9775,0.750408 0.69765,1.53052 0.32744,2.568636 -0.72702,1.562612 -1.84073,2.899868 -2.91443,4.233162 -1.01589,1.244296 -2.06178,2.463351 -3.10338,3.686024 -0.92986,1.122167 -1.87729,2.229488 -2.81787,3.342643 -0.59777,0.5329 -0.98566,1.569594 -1.81266,1.809111 -0.13123,0.03819 -0.27252,0.02267 -0.40876,0.03406 -1.70504,-0.50137 0.58113,0.193255 2.83265,0.369764 0.2193,0.01723 -0.40491,-0.176369 -0.59074,-0.294046 -0.68562,-0.434167 -1.23936,-1.07128 -1.79783,-1.648739 -1.00188,-1.028036 -1.99833,-2.052714 -2.90683,-3.164848 -0.8413,-1.04234 -1.62736,-2.124185 -2.52422,-3.120624 -0.46377,-0.50574 -0.96288,-0.976549 -1.46822,-1.439978 0,0 -3.93077,-0.28857 -3.93077,-0.28857 v 0 c 0.51205,0.452252 1.01949,0.910408 1.49222,1.404309 0.914,0.975633 1.70986,2.041225 2.53119,3.093918 0.8926,1.146038 1.91641,2.163303 2.92916,3.20229 2.27563,2.396623 2.97356,3.045572 7.21022,3.020808 0.14699,-0.05321 0.30304,-0.08614 0.44109,-0.159567 0.78971,-0.419729 1.20826,-1.324826 1.82013,-1.936463 0.93369,-1.117397 1.86176,-2.239455 2.81174,-3.343128 1.03108,-1.229614 2.06391,-2.458109 3.07764,-3.702023 1.09662,-1.370986 2.23017,-2.750679 2.97081,-4.354741 0.35848,-1.013401 0.77654,-2.253314 -0.23205,-3.020513 -0.57827,-0.521488 -1.13821,-1.063015 -1.64256,-1.657682 -0.66782,-0.752767 -1.43384,-1.387867 -2.19715,-2.042539 -0.99197,-0.888096 -1.98247,-1.783557 -2.87965,-2.769017 0,0 -3.94685,-0.332327 -3.94685,-0.332327 z" />
    <path
       style="fill:#000000;stroke-width:0.264583"
       id="path1103"
       d="m 130.74826,116.61194 c -1.29636,-0.53517 -1.96915,-1.4731 -2.7134,-2.60265 -1.10503,-1.79584 -1.91904,-3.7543 -2.60431,-5.74283 -0.46233,-1.44802 -0.86877,-3.06575 -0.55739,-4.59601 0.0536,-0.26323 0.15878,-0.51323 0.23816,-0.76985 0.4837,-1.22257 1.11086,-2.37965 1.67126,-3.566698 0,0 -2.89095,2.645068 -2.89095,2.645068 v 0 c -0.56754,1.18481 -1.17598,2.35693 -1.60443,3.60151 -0.0628,0.27343 -0.14872,0.54255 -0.18831,0.82029 -0.22529,1.58023 0.2031,3.19757 0.70229,4.67905 0.71983,2.01047 1.51961,4.0134 2.64553,5.83552 0.81507,1.26206 1.45574,2.11621 2.84075,2.79026 0,0 2.4608,-3.09366 2.4608,-3.09366 z" />
    <path
       style="fill:#000000;stroke-width:0.264583"
       id="path1105"
       d="m 124.87014,111.72956 c -0.98004,0.57321 -1.96328,1.19468 -3.09588,1.41381 -0.7542,0.14592 -1.13693,0.10428 -1.89434,0.0961 -0.72748,-0.16106 -2.19812,-0.0305 -2.7714,-0.61236 -0.28812,-0.29245 -0.21183,-0.72234 -0.21535,-1.07375 0.24926,-0.92189 0.82538,-1.65574 1.39342,-2.39951 0.20572,-0.26936 0.84207,-1.06211 0.62184,-0.80448 -3.45746,4.04444 -2.05839,2.47193 -1.27142,1.59754 1.03551,-1.04326 2.29739,-1.79214 3.61376,-2.42094 0,0 2.16815,-3.28869 2.16815,-3.28869 v 0 c -1.33509,0.6664 -2.66094,1.35826 -3.76611,2.38321 -1.52586,1.67556 -1.07306,1.16216 -3.65226,4.2802 -0.63056,0.76229 -1.32091,1.64514 -1.65902,2.58673 -0.0991,0.27599 -0.12652,0.57266 -0.18978,0.85898 0.0924,0.56434 0.0526,0.90294 0.50043,1.33224 0.73529,0.70483 2.04456,0.48105 2.94234,0.6921 0.76432,0.0245 1.2121,0.0709 1.97832,-0.0364 1.15786,-0.16221 2.14796,-0.74061 3.15703,-1.29249 0,0 2.14023,-3.31223 2.14023,-3.31223 z" />
    <path
       style="fill:#000000;stroke-width:0.264583"
       id="path1107"
       d="m 121.29138,121.92284 c -1.56198,-0.84403 -2.80753,-1.95442 -3.97801,-3.2735 -1.49331,-1.69116 -2.52015,-3.71472 -3.45297,-5.75124 -0.10022,-0.27243 -0.51564,-1.36612 -0.57749,-1.67172 -0.25746,-1.27097 -0.0186,-2.81495 0.11762,-4.09154 0.25517,-1.27198 0.61899,-2.51415 0.84322,-3.79212 0,0 -2.80051,2.70141 -2.80051,2.70141 v 0 c -0.23997,1.27068 -0.59405,2.51494 -0.79868,3.7927 -0.19111,2.08382 -0.37633,3.98115 0.60148,5.91473 0.97694,2.05166 2.04555,4.09214 3.53906,5.82143 0.48965,0.55594 0.85551,1.00464 1.40563,1.50047 0.80284,0.72358 1.7329,1.30854 2.61875,1.92089 0,0 2.48192,-3.07151 2.48192,-3.07151 z" />
    <path
       style="fill:#000000;stroke-width:0.264583"
       id="path1109"
       d="m 113.31989,118.14965 c -1.6582,0.71322 -2.21563,0.40341 -3.55368,-0.71104 -1.0862,-1.11796 -1.33868,-1.87288 -0.78015,-3.32354 0.51763,-1.13504 1.15196,-2.2181 1.98233,-3.15168 -2.28902,2.77301 -2.98071,3.43054 -1.77925,2.24305 0,0 2.05573,-3.34823 2.05573,-3.34823 v 0 c -1.42943,1.39745 -0.27027,0.24288 -3.24258,3.68454 -0.77716,0.99026 -1.42455,2.08583 -1.87807,3.26242 -0.40168,1.54599 0.007,2.51132 1.13648,3.62341 1.29968,1.06981 2.16422,1.70614 3.8441,1.00508 0,0 2.21509,-3.28401 2.21509,-3.28401 z" />
    <path
       style="fill:#000000;stroke-width:0.264583"
       id="path1111"
       d="m 111.15404,125.21466 c -1.24195,-0.95277 -2.41636,-2.06275 -3.25833,-3.39526 -0.28767,-0.45527 -0.53149,-0.9368 -0.79723,-1.4052 -1.85183,-3.48074 -3.00586,-7.2411 -3.43032,-11.15254 -0.11661,-1.01267 -0.0842,-2.02035 -0.009,-3.0327 0,0 -2.7547,2.7218 -2.7547,2.7218 v 0 c -0.0474,1.01971 -0.0712,2.03703 0.0932,3.0504 0.57815,3.91499 1.80354,7.67274 3.5617,11.22174 0.2641,0.49377 0.50127,1.00295 0.79244,1.48128 0.83991,1.37976 2.07163,2.49158 3.27541,3.54349 0,0 2.52696,-3.03301 2.52696,-3.03301 z" />
    <path
       style="fill:#000000;stroke-width:0.264583"
       id="path1113"
       d="m 103.20328,123.92774 c -2.19397,-3.34532 -3.685771,-7.11054 -5.208613,-10.79539 -0.661644,-1.62576 -1.281167,-3.26795 -1.895839,-4.91184 0,0 -2.597296,2.7982 -2.597296,2.7982 v 0 c 0.656091,1.61108 1.315369,3.22087 1.987072,4.82553 1.567438,3.74217 3.106674,7.52548 5.116776,11.05559 0,0 2.5979,-2.97209 2.5979,-2.97209 z" />
    <path
       style="fill:#000000;stroke-width:0.264583"
       id="path16505"
       d="m 83.750347,86.780011 c 0.58841,-0.704101 1.21798,-1.368152 1.92072,-1.958101 0.48637,-0.375862 2.15603,-1.595743 -0.31776,0.05768 -0.12722,0.08503 0.2761,-0.132383 0.41752,-0.190823 0.35143,-0.145227 0.35713,-0.132794 0.70582,-0.214609 0.74355,-0.149172 1.00059,0.232011 1.41848,0.758426 0.40676,0.568354 0.84913,1.110477 1.27832,1.66208 0,0 1.68292,-1.003993 1.68292,-1.003993 v 0 c -0.43548,-0.547485 -0.87855,-1.088861 -1.27657,-1.664869 -0.43753,-0.543865 -0.75506,-1.051603 -1.5432,-0.933485 -0.4035,0.07002 -0.81217,0.172988 -1.17553,0.372065 -1.06536,0.583674 -2.07722,1.095079 -2.97815,1.881963 -0.70565,0.614804 -1.34198,1.299043 -1.95342,2.007304 0,0 1.82085,-0.773637 1.82085,-0.773637 z" />
    <path
       style="fill:#000000;stroke-width:0.264583"
       id="path16507"
       d="m 82.106997,80.773012 c 0.96996,-0.01913 1.94022,-0.01402 2.9103,-0.01 0.64194,0.0043 1.28389,0.0064 1.92585,0.0057 0.70038,0.0049 1.3994,-0.06141 2.08965,-0.176255 0.0975,-0.01622 0.19489,-0.03242 0.29234,-0.04863 0,0 1.56893,-1.180065 1.56893,-1.180065 v 0 c -0.0983,0.01648 -0.19658,0.03299 -0.29487,0.04948 -0.68258,0.120576 -1.37239,0.215651 -2.06767,0.201445 -0.64721,-7.93e-4 -1.29442,0.0016 -1.94161,0.0057 -0.96092,0.0039 -1.92201,0.0095 -2.8828,-0.01 0,0 -1.60012,1.162555 -1.60012,1.162555 z" />
    <path
       style="fill:#000000;stroke-width:0.264583"
       id="path16509"
       d="m 98.891137,73.973004 c -0.58489,-0.128289 -1.15354,-0.314689 -1.74254,-0.425279 -0.55263,-0.07726 -1.11773,-0.139052 -1.67207,-0.05288 -0.87022,0.344955 -1.8762,0.736615 -2.3292,1.589268 -0.11777,0.260114 -0.0549,0.137193 -0.18636,0.369861 -0.19307,0.403049 -0.31427,0.837068 -0.41852,1.27033 -0.10921,0.619754 -0.23516,1.255494 -0.15153,1.883873 0.26619,0.819277 0.9637,1.216702 1.70234,1.558739 0.78792,0.316244 1.65214,0.367598 2.49199,0.408821 0.62914,0.02469 1.25794,0.03062 1.88468,-0.03258 0.61729,-0.05789 1.23189,-0.13762 1.840783,-0.254857 0.0913,-0.01955 0.18253,-0.03912 0.27379,-0.05867 0,0 1.56474,-1.189181 1.56474,-1.189181 v 0 c -0.0913,0.02037 -0.18253,0.04077 -0.2738,0.06116 -0.60239,0.1352 -1.21529,0.215593 -1.82982,0.269722 -0.623233,0.0766 -1.246573,0.08324 -1.874303,0.06195 -0.82523,-0.0271 -1.6729,-0.05824 -2.45573,-0.34386 -0.67872,-0.292431 -1.3568,-0.635971 -1.58482,-1.39247 -0.0548,-0.609735 0.0562,-1.223862 0.18277,-1.819423 0.11629,-0.421389 0.24395,-0.844413 0.45053,-1.231773 0.51084,-0.974178 1.16654,-1.023822 -1.04315,0.168619 -0.0661,0.03567 0.12428,-0.08441 0.18641,-0.126609 0.53131,-0.153847 1.08947,-0.06887 1.63179,-0.01267 0.58663,0.09449 1.15124,0.268586 1.72446,0.420523 0,0 1.62756,-1.122627 1.62756,-1.122627 z" />
    <path
       style="fill:#000000;stroke-width:0.264583"
       id="path16513"
       d="m 93.749947,75.213869 c 0.43012,0.545281 0.73714,1.171851 1.00481,1.809078 0.27663,0.817184 0.33855,1.683036 0.37624,2.538765 0.0328,0.684538 0.0286,1.367029 -0.10227,2.041155 -0.16563,0.57689 -0.52173,1.082183 -0.92131,1.521991 -0.24467,0.265501 -0.50969,0.514226 -0.81287,0.71238 -0.083,0.05423 -0.34186,0.200824 -0.25769,0.148455 1.45969,-0.908182 1.95681,-0.952003 1.13571,-0.820806 -0.57195,0.04913 -1.01497,-0.225528 -1.40027,-0.617985 0,0 -1.68057,1.026168 -1.68057,1.026168 v 0 c 0.40742,0.425842 0.88826,0.765765 1.50229,0.761085 0.10002,-0.0031 0.20933,0.03284 0.30005,-0.0094 1.16232,-0.540901 2.18399,-1.022562 3.0145,-1.961158 0.3954,-0.478173 0.75428,-1.00253 0.88219,-1.620425 0.1078,-0.688258 0.11928,-1.381794 0.0751,-2.076807 -0.0523,-0.87607 -0.12776,-1.760603 -0.4096,-2.597748 -0.27417,-0.648038 -0.58572,-1.282925 -0.99799,-1.855806 0,0 -1.70836,1.001043 -1.70836,1.001043 z" />
    <path
       style="fill:#000000;stroke-width:0.264583"
       id="path16515"
       d="m 96.962717,77.45342 c 0.21139,0.203644 0.43107,0.397878 0.64498,0.598921 0,0 1.66729,-1.025739 1.66729,-1.025739 v 0 c -0.2066,-0.20484 -0.42447,-0.396057 -0.62368,-0.607954 0,0 -1.68859,1.034772 -1.68859,1.034772 z" />
    <path
       style="fill:#000000;stroke-width:0.264583"
       id="path16517"
       d="m 109.36148,71.740396 c -0.70361,-0.08762 -1.40862,-0.124976 -2.11683,-0.09736 -1.38864,0.03783 -1.91516,0.557861 -3.26293,1.328151 -0.41216,0.376663 -0.49433,0.917368 -0.5576,1.444318 -0.0499,0.657637 -0.0619,1.317431 -0.0629,1.976723 -0.045,0.758401 0.20118,1.252707 0.72865,1.777987 0.54551,0.486698 1.22255,0.74078 1.90526,0.966866 0.89755,0.238221 1.83586,0.266597 2.7593,0.306594 0.28029,-0.0058 0.49569,0.0016 0.7716,-0.04877 0.1739,-0.03168 0.5622,-0.143131 0.71746,-0.229184 1.90355,-1.055069 1.45174,-0.698448 2.29951,-1.424919 0.51274,-0.451121 0.69369,-1.03498 0.77942,-1.68839 0.0833,-0.674261 0.0436,-1.06075 -0.31284,-1.644683 -0.45807,-0.545468 -1.05615,-0.961475 -1.63404,-1.371558 -0.55328,-0.429527 -1.17508,-0.732575 -1.81909,-0.996362 -0.30173,-0.12931 -0.61501,-0.22138 -0.93149,-0.305258 0,0 -1.61459,1.113917 -1.61459,1.113917 v 0 c 0.31289,0.07274 0.62266,0.154006 0.91993,0.278776 0.6319,0.259146 1.25403,0.537284 1.8001,0.956594 0.55913,0.389113 1.12442,0.802042 1.57948,1.310892 0.33057,0.540139 0.33069,0.90415 0.25,1.523119 -0.10425,0.62044 -0.32111,1.146643 -0.82805,1.551538 -0.63284,0.488277 -0.72648,0.536143 1.04598,-0.512599 0.1073,-0.06349 -0.22618,0.105344 -0.34228,0.150776 -0.28877,0.113003 -0.39703,0.143592 -0.70667,0.175487 -0.13047,0.01344 -0.26198,0.01341 -0.39297,0.02011 -0.91136,-0.02487 -1.83525,-0.04689 -2.72465,-0.264874 -0.65779,-0.206536 -1.31925,-0.441852 -1.85393,-0.892403 -0.53439,-0.512736 -0.68035,-0.90379 -0.64503,-1.645525 0.001,-0.650574 -0.003,-1.303208 0.0705,-1.950601 0.0787,-0.496356 0.1867,-0.997577 0.6389,-1.287725 -2.62818,1.485795 -1.30807,0.567317 -0.1525,0.537396 0.69526,-0.04084 1.38801,-0.02305 2.07794,0.08343 0,0 1.61431,-1.14247 1.61431,-1.14247 z" />
    <path
       style="fill:#000000;stroke-width:0.264583"
       id="path16523"
       d="m 107.66512,73.710362 c 0.0193,0.723074 0.009,1.446509 0.0102,2.169742 -0.002,0.748869 0.004,1.49768 -1.4e-4,2.24655 -0.003,0.594656 -0.003,1.18932 -0.006,1.783982 -0.002,0.519935 0.001,1.039873 8e-4,1.559814 -0.0348,0.528042 -0.13672,1.033765 -0.45199,1.466342 0,0 1.80339,-0.793131 1.80339,-0.793131 v 0 c 0.2706,-0.481904 0.38606,-1.014375 0.40051,-1.565857 -5.3e-4,-0.52025 0.003,-1.040495 8e-4,-1.560739 -0.003,-0.592702 -0.002,-1.185402 -0.006,-1.778095 -0.004,-0.748826 0.002,-1.497589 -1.4e-4,-2.24641 0.001,-0.726697 -0.009,-1.453587 0.0102,-2.180127 0,0 -1.76229,0.897929 -1.76229,0.897929 z" />
    <path
       style="fill:#000000;stroke-width:0.264583"
       id="path16525"
       d="m 103.42003,84.130294 c 0.58738,-0.09316 1.16609,-0.221062 1.75745,-0.289576 0.79815,-0.07443 1.60055,-0.07906 2.40147,-0.08487 0.79875,-0.0059 1.59751,-1.96e-4 2.39624,0.005 0.48611,0.0013 0.97221,0.0034 1.45833,0.0045 0.33392,0.03358 0.63995,-0.07315 0.95183,-0.173172 0,0 1.56227,-1.208728 1.56227,-1.208728 v 0 c -0.30249,0.09134 -0.59331,0.246311 -0.91686,0.221509 -0.48905,7.94e-4 -0.97811,0.0021 -1.46716,0.0021 -0.80435,0.003 -1.60869,0.0061 -2.41305,0.0056 -0.80085,0.0033 -1.60316,-0.0029 -2.40204,0.06206 -0.58876,0.05197 -1.16203,0.170352 -1.74296,0.268901 0,0 -1.58552,1.186685 -1.58552,1.186685 z" />
    <path
       style="fill:#000000;stroke-width:0.264583"
       id="path16527"
       d="m 118.3855,72.983295 c 0.20828,0.901523 0.25104,1.830935 0.29674,2.751979 0.0345,0.791742 0.0265,1.58428 0.0343,2.376466 0.0108,0.819134 -0.0902,1.63458 -0.13928,2.451571 -0.0397,0.495819 -0.0231,0.994871 -0.0808,1.488864 0,0 1.76212,-0.875695 1.76212,-0.875695 v 0 c 0.0423,-0.495215 0.0293,-0.993034 0.0636,-1.489022 0.05,-0.82074 0.13893,-1.640316 0.13523,-2.463292 0.004,-0.792368 -0.0189,-1.584658 -0.0549,-2.376188 -0.0463,-0.93825 -0.10735,-1.880103 -0.2779,-2.805187 0,0 -1.73916,0.940504 -1.73916,0.940504 z" />
    <path
       style="fill:#000000;stroke-width:0.264583"
       id="path16529"
       d="m 115.6048,83.717594 c 0.67628,-0.381772 1.41438,-0.637458 2.14624,-0.889743 0.81996,-0.247018 1.67732,-0.318191 2.52837,-0.361969 0.65967,-0.02498 1.32,-0.02066 1.98,-0.01913 0.55208,0.0028 1.10415,0.0061 1.65624,0.0064 0.0853,1.58e-4 0.17066,2.65e-4 0.25599,5.29e-4 0,0 1.5925,-1.156801 1.5925,-1.156801 v 0 c -0.0855,5e-6 -0.17102,1.1e-5 -0.25653,1.6e-5 -0.5539,-0.0011 -1.1078,-5.29e-4 -1.6617,-0.0021 -0.66391,-0.0024 -1.32796,-0.0061 -1.99164,0.01545 -0.86119,0.03731 -1.72632,0.109595 -2.56442,0.321527 -0.73016,0.23894 -1.45972,0.497848 -2.14754,0.841899 0,0 -1.53751,1.243914 -1.53751,1.243914 z" />
    <path
       style="fill:#000000;stroke-width:0.264583"
       id="path16531"
       d="m 114.85488,79.076689 c 1.2081,-0.110125 2.42117,-0.165521 3.6318,-0.248334 0.96069,-0.07292 1.92358,-0.102269 2.8867,-0.114445 0.4949,-0.01654 0.99139,0.01667 1.48571,-0.01302 0.6176,-0.350504 1.26092,-0.659132 1.8528,-1.051512 0.17002,-0.11271 0.21983,-1.34388 0.22968,-1.561608 0.0265,-0.685186 0.012,-1.370885 0.0109,-2.056342 0.005,-0.457639 -0.10563,-0.868677 -0.29088,-1.280345 0,0 -1.7194,0.970272 -1.7194,0.970272 v 0 c 0.17532,0.384556 0.27236,0.771282 0.26685,1.199404 0.005,0.681887 0.007,1.364142 -0.0149,2.045756 -0.0201,0.331504 -0.0309,0.672063 -0.11205,0.996156 -0.19543,0.780748 -1.36881,1.060918 1.36257,-0.444047 -0.48819,0.09418 -0.99952,-0.0011 -1.49345,0.04485 -0.97266,0.02013 -1.946,0.04323 -2.91598,0.122502 -1.19745,0.09199 -2.39472,0.16782 -3.595,0.208439 0,0 -1.5854,1.182262 -1.5854,1.182262 z" />
    <path
       style="fill:#000000;stroke-width:0.264583"
       id="path16533"
       d="m 130.48994,71.839475 c 0.0148,0.620414 0.008,1.241121 0.005,1.861643 0.0294,0.59858 -0.0836,1.027897 -0.52589,1.441225 -0.49427,0.446746 -1.63659,1.114351 1.14742,-0.614556 0.0642,-0.03985 -0.1395,0.05819 -0.21071,0.08338 -0.15309,0.05414 -0.30901,0.09998 -0.46236,0.153355 -0.4746,0.169407 -0.95692,0.317029 -1.43588,0.473961 -0.43545,0.132493 -0.87169,0.263459 -1.3029,0.409334 -1.75557,0.676349 -2.09714,0.720305 -2.23419,2.094569 -0.0771,0.579141 0.11166,1.129009 0.28133,1.67291 0.2312,0.549648 0.44118,1.107271 0.6517,1.665449 0,0 1.71452,-0.95296 1.71452,-0.95296 v 0 c -0.20914,-0.554678 -0.41613,-1.109687 -0.64259,-1.657155 -0.16134,-0.521512 -0.33225,-1.045371 -0.24305,-1.599334 0.0246,-0.170627 0.0397,-0.3404 0.0976,-0.504373 0.023,-0.06525 0.0507,-0.13008 0.09,-0.187039 0.0306,-0.04443 0.16415,-0.137837 0.11652,-0.112443 -0.47069,0.25095 -2.20227,1.229532 -1.39058,0.79184 0.43366,-0.144246 0.86652,-0.29114 1.30647,-0.415256 0.48114,-0.151709 0.95962,-0.312549 1.4397,-0.465775 0.23159,-0.09165 0.21627,-0.09267 0.45553,-0.15929 0.0757,-0.02106 0.15934,-0.02048 0.22854,-0.05768 0.80311,-0.431837 1.60141,-0.737383 2.20984,-1.379429 0.37253,-0.45997 0.49855,-0.983525 0.46085,-1.57335 -0.003,-0.622292 -0.009,-1.244767 0.005,-1.866956 0,0 -1.76229,0.89793 -1.76229,0.89793 z" />
    <path
       style="fill:#000000;stroke-width:0.264583"
       id="path16537"
       d="m 128.0872,76.38181 c 0.10223,0.859911 0.13016,1.726144 0.15082,2.591138 0.0142,0.631286 0.0147,1.26275 0.0123,1.894154 -0.002,0.480798 0.0344,0.959103 -0.0868,1.427769 -0.1154,0.500419 -0.37329,0.946311 -0.63319,1.383371 -0.12205,0.175392 -0.28211,0.322609 -0.45788,0.443653 -0.0546,0.03762 -0.22848,0.13484 -0.17126,0.101296 1.58463,-0.928905 2.04301,-1.149002 1.34007,-0.803196 -0.44216,0.22812 -0.9332,0.272701 -1.4226,0.275088 0,0 -1.59012,1.149746 -1.59012,1.149746 v 0 c 0.49546,0.02461 1.00591,0.0048 1.46837,-0.19292 0.9437,-0.447845 2.0342,-0.874941 2.63192,-1.774423 0.25557,-0.456084 0.50532,-0.919769 0.60911,-1.437942 0.0937,-0.48505 0.0662,-0.974325 0.0662,-1.466485 -0.005,-0.630221 -0.0107,-1.260499 -0.0323,-1.890416 -0.0337,-0.871791 -0.0684,-1.743763 -0.1365,-2.613657 0,0 -1.74822,0.912823 -1.74822,0.912823 z" />
    <path
       style="fill:#000000;stroke-width:0.264583"
       id="path16949"
       d="m 83.895112,76.452724 c 0.09244,-0.114885 0.17913,-0.234657 0.277338,-0.34466 0.223587,-0.250441 0.451123,-0.464182 0.723003,-0.661834 0.126199,-0.09174 0.52945,-0.3302 0.394574,-0.251777 -1.550385,0.901422 -1.720274,0.947634 -0.910151,0.618688 0.886878,-0.278969 1.277876,-0.207793 1.769964,0.57494 0.376053,0.865439 0.395203,1.823273 0.4284,2.751473 0.02064,0.868662 0.01148,1.737649 0.0064,2.606434 0.03912,0.789419 -0.07788,1.569914 -0.273592,2.332728 0,0 1.77945,-0.853659 1.77945,-0.853659 v 0 c 0.181142,-0.780894 0.294698,-1.57072 0.254362,-2.374897 0.0031,-0.87003 0.0081,-1.740297 -0.01775,-2.61007 -0.03887,-0.962768 -0.06812,-1.952329 -0.469366,-2.846001 -0.518392,-0.834165 -0.935849,-1.066147 -1.924494,-0.797407 -1.481471,0.517208 -2.905731,1.385343 -3.85209,2.649731 0,0 1.81401,-0.793689 1.81401,-0.793689 z" />
  </g>
</svg>
