<?xml version="1.0" standalone="no"?>
<!DOCTYPE svg PUBLIC "-//W3C//DTD SVG 20010904//EN"
 "http://www.w3.org/TR/2001/REC-SVG-20010904/DTD/svg10.dtd">
<svg version="1.0" xmlns="http://www.w3.org/2000/svg"
 width="260.000000pt" height="260.000000pt" viewBox="0 0 260.000000 260.000000"
 preserveAspectRatio="xMidYMid meet">
<metadata>
Created by potrace 1.11, written by Peter Selinger 2001-2013
</metadata>
<g transform="translate(0.000000,260.000000) scale(0.100000,-0.100000)"
fill="#000000" stroke="none">
<path d="M0 1300 l0 -1300 1300 0 1300 0 0 1300 0 1300 -1300 0 -1300 0 0
-1300z m1005 683 c28 -72 495 -1367 495 -1375 0 -5 -43 -7 -97 -6 l-98 3 -66
190 -67 190 -302 0 -303 0 -66 -192 -66 -193 -92 0 c-51 0 -93 4 -93 9 0 7
467 1301 495 1374 6 15 22 17 130 17 108 0 124 -2 130 -17z m1205 -53 l0 -70
-90 0 -90 0 0 -560 0 -560 90 0 90 0 0 -70 0 -70 -275 0 -275 0 0 70 0 70 90
0 90 0 0 560 0 560 -90 0 -90 0 0 70 0 70 275 0 275 0 0 -70z"/>
<path d="M751 1497 c-63 -177 -116 -328 -119 -334 -3 -10 49 -13 238 -13 189
0 241 3 238 13 -3 6 -56 157 -119 334 -63 178 -116 323 -119 323 -3 0 -56
-145 -119 -323z"/>
</g>
</svg>
